<?xml version="1.0" standalone="no"?>
<!DOCTYPE svg PUBLIC "-//W3C//DTD SVG 20010904//EN"
 "http://www.w3.org/TR/2001/REC-SVG-20010904/DTD/svg10.dtd">
<svg version="1.0" xmlns="http://www.w3.org/2000/svg"
 width="700.000000pt" height="700.000000pt" viewBox="0 0 700.000000 700.000000"
 preserveAspectRatio="xMidYMid meet">
<metadata>
Created by potrace 1.14, written by Peter Selinger 2001-2017
</metadata>
<g transform="translate(0.000000,700.000000) scale(0.100000,-0.100000)"
fill="#000000" stroke="none">
<path d="M4725 6065 c-42 -12 -237 -14 -1281 -15 -1382 0 -1282 6 -1373 -76
-36 -32 -245 -334 -769 -1112 -395 -587 -732 -1087 -748 -1112 -15 -25 -41
-60 -57 -79 -63 -74 -87 -180 -63 -271 8 -30 278 -590 599 -1245 448 -911 594
-1201 626 -1237 24 -27 66 -59 99 -75 l57 -28 1284 -3 1284 -2 100 25 c108 27
145 46 194 97 70 74 1651 2348 1684 2422 26 61 33 123 20 185 -14 66 -1276
2370 -1334 2437 -75 85 -208 122 -322 89z m-238 -507 c-8 -13 -280 -416 -603
-896 l-589 -873 -1069 1 c-589 0 -1070 1 -1071 3 -2 2 1096 1631 1175 1745
l30 42 1071 0 1071 0 -15 -22z m896 -1159 c268 -487 489 -893 492 -902 9 -21
-1343 -1972 -1357 -1958 -6 6 -907 1837 -911 1852 -3 12 1278 1907 1284 1901
4 -4 225 -406 492 -893z"/>
</g>
</svg>
